<svg width="99" height="74" viewBox="0 0 99 74" fill="none" xmlns="http://www.w3.org/2000/svg">
<path d="M8.46215 29.9632C5.93034 32.6041 4.28171 32.0759 4.75275 26.8529C5.04714 23.8012 5.28266 20.8082 5.81258 17.8739C6.46025 13.9419 7.34344 10.0099 8.16776 6.07794C8.40327 4.66947 8.16776 3.84787 7.28457 3.43706C6.46025 3.02626 5.57706 3.37838 4.92939 4.43473C4.51723 5.13896 4.10508 6.01926 3.86956 6.78218C1.98541 12.24 0.748946 17.9326 0.160151 23.6838C-0.0753673 26.2073 -0.134247 28.7308 0.572306 31.1956C1.57326 35.0102 4.51723 36.4774 7.69672 34.7168C8.99207 33.9539 10.2874 32.9562 11.2295 31.7825C13.1725 29.6698 14.8211 27.3223 16.6464 25.0923C16.9408 24.6228 17.2941 24.2707 17.5885 23.8012C17.7062 24.7402 17.5296 25.4444 17.353 26.1486C16.2342 30.198 11.3178 51.6111 10.3169 55.7191C9.96358 57.1863 9.84582 58.8295 9.78694 60.414C9.72806 61.6464 10.4346 62.5854 11.4356 62.7028C12.4954 62.8789 13.3786 62.0572 13.673 60.7662C13.9085 59.7098 14.0851 58.5948 14.3795 57.5971C17.3824 45.3317 24.7129 15.9372 28.7167 4.08261C28.9522 3.49575 29.1877 2.79151 29.3055 2.14597C29.4821 1.26567 29.1877 0.502753 28.3045 0.150633C27.6569 -0.201483 27.0092 0.0919478 26.597 0.737498C26.1849 1.20699 26.0082 1.79385 25.655 2.26334C20.8268 10.8315 15.4688 22.4514 8.46215 29.9632Z" fill="#FFF9F2"/>
<path d="M39.4337 26.8529C39.3748 26.2073 39.3159 25.6791 39.3159 25.2683C39.1981 23.5664 38.6682 22.0993 37.5495 20.9256C36.0775 19.3997 34.3112 19.5758 32.9569 21.1603C32.6037 21.5711 32.1915 21.9819 31.7205 22.2166C29.2475 23.3904 28.0699 25.5618 27.4811 28.3787C26.6568 32.4867 29.3653 35.5971 33.0747 34.6581C35.0766 34.2473 36.843 33.0149 38.0206 31.0196C38.5505 30.0806 39.0804 29.7872 39.9636 29.7872C41.2 29.7285 42.3776 29.435 43.5552 29.1416C44.2029 28.9656 44.7328 28.6134 45.2039 28.2026C45.4983 27.9679 45.6749 27.2637 45.4983 27.0289C45.3216 26.5594 44.9095 26.2073 44.4384 26.0899C44.144 26.0313 43.7319 26.266 43.3197 26.3834C42.0832 26.7942 40.9056 27.0876 39.4337 26.8529ZM32.3681 26.0899C32.9569 28.144 34.1345 28.6721 35.4887 29.259C34.7822 30.5501 33.7812 31.0783 32.4859 31.2543C31.4261 31.3717 30.955 30.7848 31.0728 29.5524C31.1905 28.32 31.4849 27.205 32.3681 26.0899ZM35.3121 23.2143C36.3131 24.0359 36.3131 24.0359 36.4897 25.6791C35.1355 25.2683 35.0177 25.0336 35.3121 23.2143Z" fill="#FFF9F2"/>
<path d="M56.5372 28.32C56.4195 32.3694 57.4204 34.6581 59.5401 34.8342C62.013 35.0102 64.7215 31.313 67.2533 28.144C68.9608 26.266 67.2533 24.7988 65.4869 26.8529C64.2504 28.32 63.0728 29.7285 61.7186 31.0783C58.8335 33.9539 60.9532 25.6204 60.8354 24.388C60.7177 23.1556 58.2447 22.8035 57.3027 23.6838C56.9494 24.0359 56.655 24.5054 56.3606 24.9162C54.8297 26.8529 50.8259 32.0172 50.1194 31.0783C50.1782 29.8459 50.9437 27.0289 51.6502 26.1486C53.0633 24.4467 50.0016 22.6861 48.5885 24.388C47.352 25.8552 45.3501 32.0759 48.0586 33.7191C48.7651 34.1299 49.7072 34.1886 50.767 33.7191C52.4157 33.0736 53.6521 31.8999 54.7708 30.5501C55.3008 30.0219 55.7718 29.3177 56.5372 28.32Z" fill="#FFF9F2"/>
<path d="M74.2263 24.6228C74.403 23.273 74.5796 22.2753 74.6385 21.2777C74.7563 20.2213 74.2852 19.6931 73.4609 19.5758C72.6955 19.5171 71.8123 19.9279 71.3413 20.7495C69.3982 24.2707 69.045 32.0759 69.3394 34.1886C69.4571 35.3624 70.3403 35.9492 71.3413 35.7145C72.46 35.4797 73.1665 34.4234 73.1665 33.2497C73.1665 29.9632 75.1684 26.8529 77.5825 24.388C77.9946 23.9185 78.5834 23.4491 79.0545 23.1556C79.8788 22.6861 80.3498 22.8622 80.4676 23.6251C80.5265 23.9185 80.4676 24.2707 80.4087 24.5641C80.3498 25.151 80.5853 25.5618 81.1152 25.6204C81.8807 25.6791 82.3517 25.2683 82.5284 24.6815C82.9994 23.3317 82.9405 22.2166 82.1162 21.2777C81.1741 20.3387 80.0554 20.1626 78.7012 20.8669C77.7002 21.395 76.8171 22.2753 75.875 23.0383C75.4039 23.3904 74.9918 23.8599 74.2263 24.6228Z" fill="#FFF9F2"/>
<path d="M91.8943 26.266C88.8915 23.3904 91.8943 20.9255 93.9551 22.9796C94.4261 23.4491 94.8383 23.7425 95.486 23.273C96.1336 22.9209 96.1337 22.2753 96.0159 21.6298C95.7215 20.3974 94.7205 19.6345 93.2486 19.6931C89.8335 19.8105 85.4176 23.9772 88.4204 27.4397C89.127 28.2613 90.0691 28.9069 90.8345 29.6111C91.4822 30.198 92.1887 30.7261 92.4831 31.7825C91.9532 32.1346 91.4822 32.4867 91.07 32.8389C88.2438 35.1276 86.5363 38.1206 86.0064 41.5244C85.712 43.9892 87.0662 46.1019 89.3625 46.6301C91.1878 47.0996 92.9542 46.8062 94.6028 45.6324C97.7823 43.3437 98.43 39.0009 97.7823 35.1863C97.1935 31.6651 95.3093 28.7895 91.8943 26.266ZM92.8953 33.7778C93.7196 36.0079 94.1906 39.7051 92.3654 41.7592C91.2467 43.1089 89.7158 43.1676 89.8924 40.292C90.0691 37.9446 91.7177 34.8342 92.8953 33.7778Z" fill="#FFF9F2"/>
<path d="M12.8722 70.4016C12.635 72.0334 11.1523 74 9.60628 74C8.06024 74 5.52087 72.053 5.52087 70.4016C5.52087 68.7503 7.82696 66.6642 9.373 66.6642C9.68937 66.6642 10.0021 67.1721 10.2678 67.8004C10.7253 68.8818 13.0393 69.2516 12.8722 70.4016Z" fill="#FFF9F2"/>
</svg>
